<mxfile host="Electron" modified="2023-09-19T13:48:18.877Z" agent="Mozilla/5.0 (Windows NT 10.0; Win64; x64) AppleWebKit/537.36 (KHTML, like Gecko) draw.io/21.7.5 Chrome/114.0.5735.289 Electron/25.8.1 Safari/537.36" etag="n29LFh3MAjHOFfRhpb34" version="21.7.5" type="device">
  <diagram name="Pagina-1" id="5B6sTZ-cUgOIKnnZWhvf">
    <mxGraphModel dx="1418" dy="820" grid="1" gridSize="10" guides="1" tooltips="1" connect="1" arrows="1" fold="1" page="1" pageScale="1" pageWidth="583" pageHeight="827" math="0" shadow="0">
      <root>
        <mxCell id="0" />
        <mxCell id="1" parent="0" />
        <mxCell id="yX8zCZgQ8lTcx4aWUemd-2" value="Cliente&lt;br&gt;" style="shape=umlActor;verticalLabelPosition=bottom;verticalAlign=top;html=1;outlineConnect=0;" parent="1" vertex="1">
          <mxGeometry x="60" y="490" width="30" height="60" as="geometry" />
        </mxCell>
        <mxCell id="yX8zCZgQ8lTcx4aWUemd-24" value="Admin&lt;br&gt;" style="shape=umlActor;verticalLabelPosition=bottom;verticalAlign=top;html=1;outlineConnect=0;" parent="1" vertex="1">
          <mxGeometry x="1070" y="490" width="30" height="60" as="geometry" />
        </mxCell>
        <mxCell id="yX8zCZgQ8lTcx4aWUemd-26" value="" style="endArrow=none;html=1;rounded=0;" parent="1" edge="1">
          <mxGeometry width="50" height="50" relative="1" as="geometry">
            <mxPoint x="160" y="1160" as="sourcePoint" />
            <mxPoint x="160" y="40" as="targetPoint" />
          </mxGeometry>
        </mxCell>
        <mxCell id="yX8zCZgQ8lTcx4aWUemd-29" value="" style="endArrow=none;html=1;rounded=0;" parent="1" edge="1">
          <mxGeometry width="50" height="50" relative="1" as="geometry">
            <mxPoint x="160" y="1160" as="sourcePoint" />
            <mxPoint x="1040" y="1160" as="targetPoint" />
          </mxGeometry>
        </mxCell>
        <mxCell id="yX8zCZgQ8lTcx4aWUemd-30" value="" style="endArrow=none;html=1;rounded=0;" parent="1" edge="1">
          <mxGeometry width="50" height="50" relative="1" as="geometry">
            <mxPoint x="1040" y="1160" as="sourcePoint" />
            <mxPoint x="1040" y="40" as="targetPoint" />
          </mxGeometry>
        </mxCell>
        <mxCell id="yX8zCZgQ8lTcx4aWUemd-31" value="" style="endArrow=none;html=1;rounded=0;" parent="1" edge="1">
          <mxGeometry width="50" height="50" relative="1" as="geometry">
            <mxPoint x="160" y="40" as="sourcePoint" />
            <mxPoint x="1040" y="40" as="targetPoint" />
          </mxGeometry>
        </mxCell>
        <mxCell id="yX8zCZgQ8lTcx4aWUemd-33" value="Registrazione" style="ellipse;whiteSpace=wrap;html=1;" parent="1" vertex="1">
          <mxGeometry x="280" y="317" width="120" height="80" as="geometry" />
        </mxCell>
        <mxCell id="yX8zCZgQ8lTcx4aWUemd-36" value="Noleggia Auto" style="ellipse;whiteSpace=wrap;html=1;" parent="1" vertex="1">
          <mxGeometry x="380" y="250" width="120" height="80" as="geometry" />
        </mxCell>
        <mxCell id="yX8zCZgQ8lTcx4aWUemd-39" value="Conferma pagamento" style="ellipse;whiteSpace=wrap;html=1;" parent="1" vertex="1">
          <mxGeometry x="520" y="530" width="120" height="80" as="geometry" />
        </mxCell>
        <mxCell id="yX8zCZgQ8lTcx4aWUemd-41" value="" style="endArrow=none;html=1;rounded=0;entryX=0.5;entryY=0.5;entryDx=0;entryDy=0;entryPerimeter=0;exitX=1;exitY=0.5;exitDx=0;exitDy=0;" parent="1" source="yX8zCZgQ8lTcx4aWUemd-39" target="yX8zCZgQ8lTcx4aWUemd-24" edge="1">
          <mxGeometry width="50" height="50" relative="1" as="geometry">
            <mxPoint x="440" y="530" as="sourcePoint" />
            <mxPoint x="490" y="480" as="targetPoint" />
          </mxGeometry>
        </mxCell>
        <mxCell id="yX8zCZgQ8lTcx4aWUemd-42" value="" style="endArrow=none;html=1;rounded=0;exitX=0.5;exitY=0.5;exitDx=0;exitDy=0;exitPerimeter=0;entryX=0;entryY=0.5;entryDx=0;entryDy=0;" parent="1" source="yX8zCZgQ8lTcx4aWUemd-2" target="yX8zCZgQ8lTcx4aWUemd-36" edge="1">
          <mxGeometry width="50" height="50" relative="1" as="geometry">
            <mxPoint x="270" y="400" as="sourcePoint" />
            <mxPoint x="320" y="350" as="targetPoint" />
          </mxGeometry>
        </mxCell>
        <mxCell id="yX8zCZgQ8lTcx4aWUemd-43" value="" style="endArrow=none;html=1;rounded=0;entryX=0.5;entryY=0.5;entryDx=0;entryDy=0;entryPerimeter=0;exitX=1;exitY=0.5;exitDx=0;exitDy=0;" parent="1" source="yX8zCZgQ8lTcx4aWUemd-36" target="yX8zCZgQ8lTcx4aWUemd-24" edge="1">
          <mxGeometry width="50" height="50" relative="1" as="geometry">
            <mxPoint x="440" y="360" as="sourcePoint" />
            <mxPoint x="490" y="310" as="targetPoint" />
          </mxGeometry>
        </mxCell>
        <mxCell id="yX8zCZgQ8lTcx4aWUemd-48" value="Login" style="ellipse;whiteSpace=wrap;html=1;" parent="1" vertex="1">
          <mxGeometry x="520" y="330" width="120" height="80" as="geometry" />
        </mxCell>
        <mxCell id="yX8zCZgQ8lTcx4aWUemd-51" value="AUTONOLEGGIO" style="text;html=1;strokeColor=none;fillColor=none;align=center;verticalAlign=middle;whiteSpace=wrap;rounded=0;" parent="1" vertex="1">
          <mxGeometry x="550" y="50" width="60" height="30" as="geometry" />
        </mxCell>
        <mxCell id="yX8zCZgQ8lTcx4aWUemd-52" value="Conferma prenotazione" style="ellipse;whiteSpace=wrap;html=1;" parent="1" vertex="1">
          <mxGeometry x="170" y="130" width="120" height="80" as="geometry" />
        </mxCell>
        <mxCell id="yX8zCZgQ8lTcx4aWUemd-57" value="Gestisci Catalogo" style="ellipse;whiteSpace=wrap;html=1;" parent="1" vertex="1">
          <mxGeometry x="520" y="440" width="120" height="80" as="geometry" />
        </mxCell>
        <mxCell id="yX8zCZgQ8lTcx4aWUemd-58" value="" style="endArrow=none;html=1;rounded=0;exitX=1;exitY=0.5;exitDx=0;exitDy=0;entryX=0.5;entryY=0.5;entryDx=0;entryDy=0;entryPerimeter=0;" parent="1" source="yX8zCZgQ8lTcx4aWUemd-57" target="yX8zCZgQ8lTcx4aWUemd-24" edge="1">
          <mxGeometry width="50" height="50" relative="1" as="geometry">
            <mxPoint x="130" y="670" as="sourcePoint" />
            <mxPoint x="180" y="620" as="targetPoint" />
          </mxGeometry>
        </mxCell>
        <mxCell id="yX8zCZgQ8lTcx4aWUemd-59" value="Visualizza stato noleggio" style="ellipse;whiteSpace=wrap;html=1;" parent="1" vertex="1">
          <mxGeometry x="520" y="620" width="120" height="80" as="geometry" />
        </mxCell>
        <mxCell id="yX8zCZgQ8lTcx4aWUemd-60" value="" style="endArrow=none;html=1;rounded=0;entryX=0.5;entryY=0.5;entryDx=0;entryDy=0;entryPerimeter=0;exitX=0;exitY=0.5;exitDx=0;exitDy=0;" parent="1" source="yX8zCZgQ8lTcx4aWUemd-59" target="yX8zCZgQ8lTcx4aWUemd-2" edge="1">
          <mxGeometry width="50" height="50" relative="1" as="geometry">
            <mxPoint x="60" y="530" as="sourcePoint" />
            <mxPoint x="110" y="480" as="targetPoint" />
          </mxGeometry>
        </mxCell>
        <mxCell id="yX8zCZgQ8lTcx4aWUemd-61" value="" style="endArrow=none;html=1;rounded=0;entryX=0.5;entryY=0.5;entryDx=0;entryDy=0;entryPerimeter=0;exitX=1;exitY=0.5;exitDx=0;exitDy=0;" parent="1" source="yX8zCZgQ8lTcx4aWUemd-59" target="yX8zCZgQ8lTcx4aWUemd-24" edge="1">
          <mxGeometry width="50" height="50" relative="1" as="geometry">
            <mxPoint x="150" y="650" as="sourcePoint" />
            <mxPoint x="200" y="600" as="targetPoint" />
          </mxGeometry>
        </mxCell>
        <mxCell id="Ibw8iIDuZQ_VdaeZIArf-2" value="Cancella prenotazione" style="ellipse;whiteSpace=wrap;html=1;" parent="1" vertex="1">
          <mxGeometry x="520" y="710" width="120" height="80" as="geometry" />
        </mxCell>
        <mxCell id="Ibw8iIDuZQ_VdaeZIArf-3" value="Consulta Catalogo" style="ellipse;whiteSpace=wrap;html=1;" parent="1" vertex="1">
          <mxGeometry x="520" y="96" width="120" height="80" as="geometry" />
        </mxCell>
        <mxCell id="Ibw8iIDuZQ_VdaeZIArf-5" value="" style="endArrow=none;html=1;rounded=0;exitX=1;exitY=0.5;exitDx=0;exitDy=0;entryX=0.5;entryY=0.5;entryDx=0;entryDy=0;entryPerimeter=0;" parent="1" source="Ibw8iIDuZQ_VdaeZIArf-2" target="yX8zCZgQ8lTcx4aWUemd-24" edge="1">
          <mxGeometry width="50" height="50" relative="1" as="geometry">
            <mxPoint x="680" y="730" as="sourcePoint" />
            <mxPoint x="730" y="680" as="targetPoint" />
          </mxGeometry>
        </mxCell>
        <mxCell id="Ibw8iIDuZQ_VdaeZIArf-6" value="" style="endArrow=none;html=1;rounded=0;entryX=0;entryY=0.5;entryDx=0;entryDy=0;exitX=0.5;exitY=0.5;exitDx=0;exitDy=0;exitPerimeter=0;" parent="1" source="yX8zCZgQ8lTcx4aWUemd-2" target="Ibw8iIDuZQ_VdaeZIArf-2" edge="1">
          <mxGeometry width="50" height="50" relative="1" as="geometry">
            <mxPoint x="40" y="750" as="sourcePoint" />
            <mxPoint x="90" y="700" as="targetPoint" />
          </mxGeometry>
        </mxCell>
        <mxCell id="Ibw8iIDuZQ_VdaeZIArf-7" value="" style="endArrow=none;html=1;rounded=0;entryX=0;entryY=0.5;entryDx=0;entryDy=0;exitX=0.5;exitY=0.5;exitDx=0;exitDy=0;exitPerimeter=0;" parent="1" source="yX8zCZgQ8lTcx4aWUemd-2" target="Ibw8iIDuZQ_VdaeZIArf-3" edge="1">
          <mxGeometry width="50" height="50" relative="1" as="geometry">
            <mxPoint x="70" y="250" as="sourcePoint" />
            <mxPoint x="120" y="200" as="targetPoint" />
          </mxGeometry>
        </mxCell>
        <mxCell id="Ibw8iIDuZQ_VdaeZIArf-8" value="" style="endArrow=none;html=1;rounded=0;exitX=1;exitY=0.5;exitDx=0;exitDy=0;entryX=0.5;entryY=0.5;entryDx=0;entryDy=0;entryPerimeter=0;" parent="1" source="Ibw8iIDuZQ_VdaeZIArf-3" target="yX8zCZgQ8lTcx4aWUemd-24" edge="1">
          <mxGeometry width="50" height="50" relative="1" as="geometry">
            <mxPoint x="600" y="180" as="sourcePoint" />
            <mxPoint x="650" y="130" as="targetPoint" />
          </mxGeometry>
        </mxCell>
        <mxCell id="Ibw8iIDuZQ_VdaeZIArf-9" value="" style="endArrow=none;html=1;rounded=0;entryX=0.5;entryY=0.5;entryDx=0;entryDy=0;entryPerimeter=0;exitX=0;exitY=0.5;exitDx=0;exitDy=0;" parent="1" source="yX8zCZgQ8lTcx4aWUemd-39" target="yX8zCZgQ8lTcx4aWUemd-2" edge="1">
          <mxGeometry width="50" height="50" relative="1" as="geometry">
            <mxPoint x="60" y="520" as="sourcePoint" />
            <mxPoint x="110" y="470" as="targetPoint" />
          </mxGeometry>
        </mxCell>
        <mxCell id="Ibw8iIDuZQ_VdaeZIArf-10" value="Storico Noleggi" style="ellipse;whiteSpace=wrap;html=1;" parent="1" vertex="1">
          <mxGeometry x="520" y="800" width="120" height="80" as="geometry" />
        </mxCell>
        <mxCell id="Ibw8iIDuZQ_VdaeZIArf-11" value="" style="endArrow=none;html=1;rounded=0;entryX=0.5;entryY=0.5;entryDx=0;entryDy=0;entryPerimeter=0;exitX=0;exitY=0.5;exitDx=0;exitDy=0;" parent="1" source="Ibw8iIDuZQ_VdaeZIArf-10" target="yX8zCZgQ8lTcx4aWUemd-2" edge="1">
          <mxGeometry width="50" height="50" relative="1" as="geometry">
            <mxPoint x="490" y="840" as="sourcePoint" />
            <mxPoint x="540" y="790" as="targetPoint" />
          </mxGeometry>
        </mxCell>
        <mxCell id="Ibw8iIDuZQ_VdaeZIArf-12" value="" style="endArrow=none;html=1;rounded=0;entryX=1;entryY=0.5;entryDx=0;entryDy=0;exitX=0.5;exitY=0.5;exitDx=0;exitDy=0;exitPerimeter=0;" parent="1" source="yX8zCZgQ8lTcx4aWUemd-24" target="Ibw8iIDuZQ_VdaeZIArf-10" edge="1">
          <mxGeometry width="50" height="50" relative="1" as="geometry">
            <mxPoint x="80" y="870" as="sourcePoint" />
            <mxPoint x="130" y="820" as="targetPoint" />
          </mxGeometry>
        </mxCell>
        <mxCell id="Ibw8iIDuZQ_VdaeZIArf-13" value="Modifica Contatti" style="ellipse;whiteSpace=wrap;html=1;" parent="1" vertex="1">
          <mxGeometry x="520" y="890" width="120" height="80" as="geometry" />
        </mxCell>
        <mxCell id="Ibw8iIDuZQ_VdaeZIArf-15" value="" style="endArrow=none;html=1;rounded=0;entryX=0.5;entryY=0.5;entryDx=0;entryDy=0;entryPerimeter=0;exitX=1;exitY=0.5;exitDx=0;exitDy=0;" parent="1" source="Ibw8iIDuZQ_VdaeZIArf-13" target="yX8zCZgQ8lTcx4aWUemd-24" edge="1">
          <mxGeometry width="50" height="50" relative="1" as="geometry">
            <mxPoint x="660" y="780" as="sourcePoint" />
            <mxPoint x="710" y="730" as="targetPoint" />
          </mxGeometry>
        </mxCell>
        <mxCell id="Cy_52MtbL0LNF5Dpi5B3-7" value="&amp;lt;&amp;lt;include&amp;gt;&amp;gt;" style="text;html=1;strokeColor=none;fillColor=none;align=center;verticalAlign=middle;whiteSpace=wrap;rounded=0;rotation=-45;" parent="1" vertex="1">
          <mxGeometry x="470" y="176" width="40" height="20" as="geometry" />
        </mxCell>
        <mxCell id="Cy_52MtbL0LNF5Dpi5B3-8" value="&amp;lt;&amp;lt;Extend&amp;gt;&amp;gt;" style="text;html=1;strokeColor=none;fillColor=none;align=center;verticalAlign=middle;whiteSpace=wrap;rounded=0;rotation=0;" parent="1" vertex="1">
          <mxGeometry x="400" y="355" width="60" height="30" as="geometry" />
        </mxCell>
        <mxCell id="Cy_52MtbL0LNF5Dpi5B3-55" value="&amp;lt;&amp;lt;include&amp;gt;&amp;gt;" style="text;html=1;strokeColor=none;fillColor=none;align=center;verticalAlign=middle;whiteSpace=wrap;rounded=0;rotation=0;" parent="1" vertex="1">
          <mxGeometry x="470" y="317" width="60" height="30" as="geometry" />
        </mxCell>
        <mxCell id="Cy_52MtbL0LNF5Dpi5B3-58" value="&amp;lt;&amp;lt;include&amp;gt;&amp;gt;" style="text;html=1;strokeColor=none;fillColor=none;align=center;verticalAlign=middle;whiteSpace=wrap;rounded=0;" parent="1" vertex="1">
          <mxGeometry x="510" y="410" width="60" height="30" as="geometry" />
        </mxCell>
        <mxCell id="Cy_52MtbL0LNF5Dpi5B3-59" value="" style="endArrow=none;html=1;rounded=0;entryX=0.5;entryY=0.5;entryDx=0;entryDy=0;entryPerimeter=0;exitX=1;exitY=0.5;exitDx=0;exitDy=0;" parent="1" source="yX8zCZgQ8lTcx4aWUemd-48" target="yX8zCZgQ8lTcx4aWUemd-24" edge="1">
          <mxGeometry width="50" height="50" relative="1" as="geometry">
            <mxPoint x="120" y="610" as="sourcePoint" />
            <mxPoint x="170" y="560" as="targetPoint" />
          </mxGeometry>
        </mxCell>
        <mxCell id="Cy_52MtbL0LNF5Dpi5B3-60" value="" style="endArrow=none;html=1;rounded=0;entryX=0;entryY=0.5;entryDx=0;entryDy=0;exitX=0.5;exitY=0.5;exitDx=0;exitDy=0;exitPerimeter=0;" parent="1" source="yX8zCZgQ8lTcx4aWUemd-2" target="yX8zCZgQ8lTcx4aWUemd-48" edge="1">
          <mxGeometry width="50" height="50" relative="1" as="geometry">
            <mxPoint x="60" y="580" as="sourcePoint" />
            <mxPoint x="110" y="530" as="targetPoint" />
          </mxGeometry>
        </mxCell>
        <mxCell id="Cy_52MtbL0LNF5Dpi5B3-67" value="Servizi Aggiuntivi" style="ellipse;whiteSpace=wrap;html=1;" parent="1" vertex="1">
          <mxGeometry x="520" y="220" width="120" height="80" as="geometry" />
        </mxCell>
        <mxCell id="Cy_52MtbL0LNF5Dpi5B3-69" value="" style="endArrow=none;html=1;rounded=0;entryX=0.5;entryY=0.5;entryDx=0;entryDy=0;entryPerimeter=0;exitX=1;exitY=0.5;exitDx=0;exitDy=0;" parent="1" source="Cy_52MtbL0LNF5Dpi5B3-67" target="yX8zCZgQ8lTcx4aWUemd-24" edge="1">
          <mxGeometry width="50" height="50" relative="1" as="geometry">
            <mxPoint x="60" y="920" as="sourcePoint" />
            <mxPoint x="110" y="870" as="targetPoint" />
          </mxGeometry>
        </mxCell>
        <mxCell id="Cy_52MtbL0LNF5Dpi5B3-76" value="" style="endArrow=block;dashed=1;endFill=0;endSize=12;html=1;rounded=0;exitX=0.942;exitY=0.738;exitDx=0;exitDy=0;exitPerimeter=0;entryX=0;entryY=0;entryDx=0;entryDy=0;" parent="1" source="yX8zCZgQ8lTcx4aWUemd-36" target="yX8zCZgQ8lTcx4aWUemd-48" edge="1">
          <mxGeometry width="160" relative="1" as="geometry">
            <mxPoint x="400" y="330" as="sourcePoint" />
            <mxPoint x="640" y="310" as="targetPoint" />
          </mxGeometry>
        </mxCell>
        <mxCell id="Cy_52MtbL0LNF5Dpi5B3-78" value="" style="endArrow=block;dashed=1;endFill=0;endSize=12;html=1;rounded=0;exitX=1;exitY=0.5;exitDx=0;exitDy=0;entryX=0;entryY=0.5;entryDx=0;entryDy=0;" parent="1" source="yX8zCZgQ8lTcx4aWUemd-33" target="yX8zCZgQ8lTcx4aWUemd-48" edge="1">
          <mxGeometry width="160" relative="1" as="geometry">
            <mxPoint x="80" y="920" as="sourcePoint" />
            <mxPoint x="380" y="180" as="targetPoint" />
          </mxGeometry>
        </mxCell>
        <mxCell id="Cy_52MtbL0LNF5Dpi5B3-79" value="" style="endArrow=block;dashed=1;endFill=0;endSize=12;html=1;rounded=0;exitX=0.5;exitY=0;exitDx=0;exitDy=0;entryX=0;entryY=1;entryDx=0;entryDy=0;" parent="1" source="yX8zCZgQ8lTcx4aWUemd-36" target="Ibw8iIDuZQ_VdaeZIArf-3" edge="1">
          <mxGeometry width="160" relative="1" as="geometry">
            <mxPoint x="110" y="910" as="sourcePoint" />
            <mxPoint x="380" y="180" as="targetPoint" />
          </mxGeometry>
        </mxCell>
        <mxCell id="uo8svoxTqUcWpc9EiL0h-1" value="" style="endArrow=block;dashed=1;endFill=0;endSize=12;html=1;rounded=0;exitX=0.5;exitY=0;exitDx=0;exitDy=0;entryX=0.5;entryY=1;entryDx=0;entryDy=0;" parent="1" source="yX8zCZgQ8lTcx4aWUemd-57" target="yX8zCZgQ8lTcx4aWUemd-48" edge="1">
          <mxGeometry width="160" relative="1" as="geometry">
            <mxPoint x="330" y="420" as="sourcePoint" />
            <mxPoint x="670" y="430" as="targetPoint" />
          </mxGeometry>
        </mxCell>
        <mxCell id="_UHLjUNYdWrgVrldkogq-2" value="" style="endArrow=block;dashed=1;endFill=0;endSize=12;html=1;rounded=0;exitX=0;exitY=0.5;exitDx=0;exitDy=0;entryX=1;entryY=0;entryDx=0;entryDy=0;" edge="1" parent="1" source="Cy_52MtbL0LNF5Dpi5B3-67" target="yX8zCZgQ8lTcx4aWUemd-36">
          <mxGeometry width="160" relative="1" as="geometry">
            <mxPoint x="520" y="260" as="sourcePoint" />
            <mxPoint x="540" y="200" as="targetPoint" />
          </mxGeometry>
        </mxCell>
        <mxCell id="_UHLjUNYdWrgVrldkogq-3" value="&amp;lt;&amp;lt;Extend&amp;gt;&amp;gt;" style="text;html=1;strokeColor=none;fillColor=none;align=center;verticalAlign=middle;whiteSpace=wrap;rounded=0;" vertex="1" parent="1">
          <mxGeometry x="470" y="230" width="60" height="30" as="geometry" />
        </mxCell>
        <mxCell id="_UHLjUNYdWrgVrldkogq-6" value="" style="endArrow=block;dashed=1;endFill=0;endSize=12;html=1;rounded=0;exitX=1;exitY=1;exitDx=0;exitDy=0;entryX=0;entryY=0;entryDx=0;entryDy=0;" edge="1" parent="1" source="yX8zCZgQ8lTcx4aWUemd-52" target="yX8zCZgQ8lTcx4aWUemd-36">
          <mxGeometry width="160" relative="1" as="geometry">
            <mxPoint x="330" y="420" as="sourcePoint" />
            <mxPoint x="490" y="420" as="targetPoint" />
          </mxGeometry>
        </mxCell>
        <mxCell id="_UHLjUNYdWrgVrldkogq-7" value="&amp;lt;&amp;lt;Extend&amp;gt;&amp;gt;" style="text;html=1;strokeColor=none;fillColor=none;align=center;verticalAlign=middle;whiteSpace=wrap;rounded=0;rotation=30;" vertex="1" parent="1">
          <mxGeometry x="300" y="196" width="60" height="30" as="geometry" />
        </mxCell>
        <mxCell id="_UHLjUNYdWrgVrldkogq-8" value="Logout" style="ellipse;whiteSpace=wrap;html=1;" vertex="1" parent="1">
          <mxGeometry x="330" y="430" width="120" height="80" as="geometry" />
        </mxCell>
        <mxCell id="_UHLjUNYdWrgVrldkogq-12" value="" style="endArrow=block;dashed=1;endFill=0;endSize=12;html=1;rounded=0;exitX=1;exitY=0;exitDx=0;exitDy=0;entryX=0;entryY=1;entryDx=0;entryDy=0;" edge="1" parent="1" source="_UHLjUNYdWrgVrldkogq-8" target="yX8zCZgQ8lTcx4aWUemd-48">
          <mxGeometry width="160" relative="1" as="geometry">
            <mxPoint x="330" y="620" as="sourcePoint" />
            <mxPoint x="490" y="620" as="targetPoint" />
          </mxGeometry>
        </mxCell>
        <mxCell id="_UHLjUNYdWrgVrldkogq-14" value="&amp;lt;&amp;lt;include&amp;gt;&amp;gt;" style="text;html=1;strokeColor=none;fillColor=none;align=center;verticalAlign=middle;whiteSpace=wrap;rounded=0;rotation=-20;" vertex="1" parent="1">
          <mxGeometry x="430" y="400" width="60" height="30" as="geometry" />
        </mxCell>
      </root>
    </mxGraphModel>
  </diagram>
</mxfile>
